<mxfile host="app.diagrams.net" agent="Mozilla/5.0 (Macintosh; Intel Mac OS X 10_15_7) AppleWebKit/537.36 (KHTML, like Gecko) Chrome/126.0.0.0 Safari/537.36" version="24.7.6">
  <diagram name="Page-1" id="10a91c8b-09ff-31b1-d368-03940ed4cc9e">
    <mxGraphModel dx="2390" dy="1127" grid="1" gridSize="10" guides="1" tooltips="1" connect="1" arrows="1" fold="1" page="1" pageScale="1" pageWidth="1100" pageHeight="850" background="none" math="0" shadow="0">
      <root>
        <mxCell id="0" />
        <mxCell id="1" parent="0" />
        <mxCell id="p1uajyHC_b8LOkgZMdDg-25" style="edgeStyle=orthogonalEdgeStyle;rounded=0;orthogonalLoop=1;jettySize=auto;html=1;" edge="1" parent="1" source="p1uajyHC_b8LOkgZMdDg-24" target="p1uajyHC_b8LOkgZMdDg-26">
          <mxGeometry relative="1" as="geometry">
            <mxPoint x="560" y="200" as="targetPoint" />
          </mxGeometry>
        </mxCell>
        <mxCell id="p1uajyHC_b8LOkgZMdDg-24" value="开始" style="rounded=0;whiteSpace=wrap;html=1;fontSize=18;" vertex="1" parent="1">
          <mxGeometry x="500" y="60" width="120" height="60" as="geometry" />
        </mxCell>
        <mxCell id="p1uajyHC_b8LOkgZMdDg-29" value="" style="edgeStyle=orthogonalEdgeStyle;rounded=0;orthogonalLoop=1;jettySize=auto;html=1;" edge="1" parent="1" source="p1uajyHC_b8LOkgZMdDg-26" target="p1uajyHC_b8LOkgZMdDg-27">
          <mxGeometry relative="1" as="geometry" />
        </mxCell>
        <mxCell id="p1uajyHC_b8LOkgZMdDg-26" value="审批/抄送节点" style="rounded=0;whiteSpace=wrap;html=1;fontSize=18;" vertex="1" parent="1">
          <mxGeometry x="500" y="170" width="120" height="60" as="geometry" />
        </mxCell>
        <mxCell id="p1uajyHC_b8LOkgZMdDg-58" value="" style="edgeStyle=orthogonalEdgeStyle;rounded=0;orthogonalLoop=1;jettySize=auto;html=1;" edge="1" parent="1" source="p1uajyHC_b8LOkgZMdDg-27">
          <mxGeometry relative="1" as="geometry">
            <mxPoint x="560" y="750" as="targetPoint" />
          </mxGeometry>
        </mxCell>
        <mxCell id="p1uajyHC_b8LOkgZMdDg-27" value="条件容器" style="rounded=0;whiteSpace=wrap;html=1;fontSize=18;labelPosition=center;verticalLabelPosition=top;align=center;verticalAlign=bottom;labelBackgroundColor=default;fillColor=none;" vertex="1" parent="1">
          <mxGeometry x="170" y="290" width="780" height="390" as="geometry" />
        </mxCell>
        <mxCell id="p1uajyHC_b8LOkgZMdDg-30" value="审批流1" style="rounded=0;whiteSpace=wrap;html=1;labelPosition=center;verticalLabelPosition=top;align=center;verticalAlign=bottom;fillColor=none;" vertex="1" parent="1">
          <mxGeometry x="220" y="310" width="160" height="360" as="geometry" />
        </mxCell>
        <mxCell id="p1uajyHC_b8LOkgZMdDg-40" value="" style="edgeStyle=orthogonalEdgeStyle;rounded=0;orthogonalLoop=1;jettySize=auto;html=1;" edge="1" parent="1" source="p1uajyHC_b8LOkgZMdDg-34" target="p1uajyHC_b8LOkgZMdDg-39">
          <mxGeometry relative="1" as="geometry" />
        </mxCell>
        <mxCell id="p1uajyHC_b8LOkgZMdDg-34" value="条件1" style="rounded=0;whiteSpace=wrap;html=1;" vertex="1" parent="1">
          <mxGeometry x="240" y="340" width="120" height="60" as="geometry" />
        </mxCell>
        <mxCell id="p1uajyHC_b8LOkgZMdDg-35" value="审批流2" style="rounded=0;whiteSpace=wrap;html=1;labelPosition=center;verticalLabelPosition=top;align=center;verticalAlign=bottom;fillColor=none;" vertex="1" parent="1">
          <mxGeometry x="480" y="310" width="160" height="360" as="geometry" />
        </mxCell>
        <mxCell id="p1uajyHC_b8LOkgZMdDg-36" value="审批流3" style="rounded=0;whiteSpace=wrap;html=1;labelPosition=center;verticalLabelPosition=top;align=center;verticalAlign=bottom;fillColor=none;" vertex="1" parent="1">
          <mxGeometry x="750" y="310" width="160" height="360" as="geometry" />
        </mxCell>
        <mxCell id="p1uajyHC_b8LOkgZMdDg-42" value="" style="edgeStyle=orthogonalEdgeStyle;rounded=0;orthogonalLoop=1;jettySize=auto;html=1;" edge="1" parent="1" source="p1uajyHC_b8LOkgZMdDg-37" target="p1uajyHC_b8LOkgZMdDg-41">
          <mxGeometry relative="1" as="geometry" />
        </mxCell>
        <mxCell id="p1uajyHC_b8LOkgZMdDg-37" value="条件2" style="rounded=0;whiteSpace=wrap;html=1;" vertex="1" parent="1">
          <mxGeometry x="500" y="340" width="120" height="60" as="geometry" />
        </mxCell>
        <mxCell id="p1uajyHC_b8LOkgZMdDg-44" value="" style="edgeStyle=orthogonalEdgeStyle;rounded=0;orthogonalLoop=1;jettySize=auto;html=1;" edge="1" parent="1" source="p1uajyHC_b8LOkgZMdDg-38" target="p1uajyHC_b8LOkgZMdDg-43">
          <mxGeometry relative="1" as="geometry" />
        </mxCell>
        <mxCell id="p1uajyHC_b8LOkgZMdDg-38" value="条件3" style="rounded=0;whiteSpace=wrap;html=1;" vertex="1" parent="1">
          <mxGeometry x="770" y="340" width="120" height="60" as="geometry" />
        </mxCell>
        <mxCell id="p1uajyHC_b8LOkgZMdDg-48" value="" style="edgeStyle=orthogonalEdgeStyle;rounded=0;orthogonalLoop=1;jettySize=auto;html=1;" edge="1" parent="1" source="p1uajyHC_b8LOkgZMdDg-39">
          <mxGeometry relative="1" as="geometry">
            <mxPoint x="300" y="620" as="targetPoint" />
          </mxGeometry>
        </mxCell>
        <mxCell id="p1uajyHC_b8LOkgZMdDg-39" value="审批/抄送节点" style="whiteSpace=wrap;html=1;rounded=0;" vertex="1" parent="1">
          <mxGeometry x="240" y="480" width="120" height="60" as="geometry" />
        </mxCell>
        <mxCell id="p1uajyHC_b8LOkgZMdDg-51" value="" style="edgeStyle=orthogonalEdgeStyle;rounded=0;orthogonalLoop=1;jettySize=auto;html=1;" edge="1" parent="1" source="p1uajyHC_b8LOkgZMdDg-41">
          <mxGeometry relative="1" as="geometry">
            <mxPoint x="560" y="620" as="targetPoint" />
          </mxGeometry>
        </mxCell>
        <mxCell id="p1uajyHC_b8LOkgZMdDg-41" value="条件容器" style="whiteSpace=wrap;html=1;rounded=0;labelPosition=center;verticalLabelPosition=top;align=center;verticalAlign=bottom;" vertex="1" parent="1">
          <mxGeometry x="500" y="480" width="120" height="60" as="geometry" />
        </mxCell>
        <mxCell id="p1uajyHC_b8LOkgZMdDg-54" value="" style="edgeStyle=orthogonalEdgeStyle;rounded=0;orthogonalLoop=1;jettySize=auto;html=1;" edge="1" parent="1" source="p1uajyHC_b8LOkgZMdDg-43">
          <mxGeometry relative="1" as="geometry">
            <mxPoint x="830" y="620" as="targetPoint" />
          </mxGeometry>
        </mxCell>
        <mxCell id="p1uajyHC_b8LOkgZMdDg-43" value="审批/抄送节点" style="whiteSpace=wrap;html=1;rounded=0;" vertex="1" parent="1">
          <mxGeometry x="770" y="480" width="120" height="60" as="geometry" />
        </mxCell>
        <mxCell id="p1uajyHC_b8LOkgZMdDg-45" value="......" style="ellipse;whiteSpace=wrap;html=1;align=center;dashed=1;" vertex="1" parent="1">
          <mxGeometry x="510" y="490" width="100" height="40" as="geometry" />
        </mxCell>
        <mxCell id="p1uajyHC_b8LOkgZMdDg-49" value="......" style="ellipse;whiteSpace=wrap;html=1;align=center;dashed=1;" vertex="1" parent="1">
          <mxGeometry x="250" y="620" width="100" height="40" as="geometry" />
        </mxCell>
        <mxCell id="p1uajyHC_b8LOkgZMdDg-52" value="......" style="ellipse;whiteSpace=wrap;html=1;align=center;dashed=1;" vertex="1" parent="1">
          <mxGeometry x="510" y="620" width="100" height="40" as="geometry" />
        </mxCell>
        <mxCell id="p1uajyHC_b8LOkgZMdDg-55" value="......" style="ellipse;whiteSpace=wrap;html=1;align=center;dashed=1;" vertex="1" parent="1">
          <mxGeometry x="780" y="620" width="100" height="40" as="geometry" />
        </mxCell>
        <mxCell id="p1uajyHC_b8LOkgZMdDg-61" value="" style="edgeStyle=orthogonalEdgeStyle;rounded=0;orthogonalLoop=1;jettySize=auto;html=1;" edge="1" parent="1" source="p1uajyHC_b8LOkgZMdDg-59" target="p1uajyHC_b8LOkgZMdDg-60">
          <mxGeometry relative="1" as="geometry" />
        </mxCell>
        <mxCell id="p1uajyHC_b8LOkgZMdDg-59" value="审批/抄送节点" style="rounded=0;whiteSpace=wrap;html=1;fontSize=18;" vertex="1" parent="1">
          <mxGeometry x="500" y="750" width="120" height="60" as="geometry" />
        </mxCell>
        <mxCell id="p1uajyHC_b8LOkgZMdDg-60" value="结束" style="whiteSpace=wrap;html=1;fontSize=18;rounded=0;" vertex="1" parent="1">
          <mxGeometry x="500" y="890" width="120" height="60" as="geometry" />
        </mxCell>
      </root>
    </mxGraphModel>
  </diagram>
</mxfile>
